<mxfile host="Electron" modified="2023-07-15T20:41:48.708Z" agent="Mozilla/5.0 (Windows NT 10.0; Win64; x64) AppleWebKit/537.36 (KHTML, like Gecko) draw.io/21.6.1 Chrome/112.0.5615.204 Electron/24.6.1 Safari/537.36" etag="II7-x6x_tfQQErIX4dnQ" version="21.6.1" type="device">
  <diagram name="Page-1" id="jI4qV62Uj2EFACg4bPsj">
    <mxGraphModel dx="1434" dy="844" grid="1" gridSize="10" guides="1" tooltips="1" connect="1" arrows="1" fold="1" page="1" pageScale="1" pageWidth="1100" pageHeight="850" math="0" shadow="0">
      <root>
        <mxCell id="0" />
        <mxCell id="1" parent="0" />
        <mxCell id="KwdxTGRoU_PCcNSmUWH1-2" value="Design Language Types" style="shape=table;startSize=30;container=1;collapsible=0;childLayout=tableLayout;" parent="1" vertex="1">
          <mxGeometry x="40" y="58" width="140" height="404" as="geometry" />
        </mxCell>
        <mxCell id="KwdxTGRoU_PCcNSmUWH1-3" value="" style="shape=tableRow;horizontal=0;startSize=0;swimlaneHead=0;swimlaneBody=0;strokeColor=inherit;top=0;left=0;bottom=0;right=0;collapsible=0;dropTarget=0;fillColor=none;points=[[0,0.5],[1,0.5]];portConstraint=eastwest;" parent="KwdxTGRoU_PCcNSmUWH1-2" vertex="1">
          <mxGeometry y="30" width="140" height="20" as="geometry" />
        </mxCell>
        <mxCell id="KwdxTGRoU_PCcNSmUWH1-4" value="1" style="shape=partialRectangle;html=1;whiteSpace=wrap;connectable=0;strokeColor=inherit;overflow=hidden;fillColor=none;top=0;left=0;bottom=0;right=0;pointerEvents=1;" parent="KwdxTGRoU_PCcNSmUWH1-3" vertex="1">
          <mxGeometry width="20" height="20" as="geometry">
            <mxRectangle width="20" height="20" as="alternateBounds" />
          </mxGeometry>
        </mxCell>
        <mxCell id="KwdxTGRoU_PCcNSmUWH1-5" value="Analysis" style="shape=partialRectangle;html=1;whiteSpace=wrap;connectable=0;strokeColor=inherit;overflow=hidden;fillColor=none;top=0;left=0;bottom=0;right=0;pointerEvents=1;" parent="KwdxTGRoU_PCcNSmUWH1-3" vertex="1">
          <mxGeometry x="20" width="120" height="20" as="geometry">
            <mxRectangle width="120" height="20" as="alternateBounds" />
          </mxGeometry>
        </mxCell>
        <mxCell id="KwdxTGRoU_PCcNSmUWH1-7" value="" style="shape=tableRow;horizontal=0;startSize=0;swimlaneHead=0;swimlaneBody=0;strokeColor=inherit;top=0;left=0;bottom=0;right=0;collapsible=0;dropTarget=0;fillColor=none;points=[[0,0.5],[1,0.5]];portConstraint=eastwest;" parent="KwdxTGRoU_PCcNSmUWH1-2" vertex="1">
          <mxGeometry y="50" width="140" height="22" as="geometry" />
        </mxCell>
        <mxCell id="KwdxTGRoU_PCcNSmUWH1-8" value="2" style="shape=partialRectangle;html=1;whiteSpace=wrap;connectable=0;strokeColor=inherit;overflow=hidden;fillColor=none;top=0;left=0;bottom=0;right=0;pointerEvents=1;" parent="KwdxTGRoU_PCcNSmUWH1-7" vertex="1">
          <mxGeometry width="20" height="22" as="geometry">
            <mxRectangle width="20" height="22" as="alternateBounds" />
          </mxGeometry>
        </mxCell>
        <mxCell id="KwdxTGRoU_PCcNSmUWH1-9" value="Conclusion" style="shape=partialRectangle;html=1;whiteSpace=wrap;connectable=0;strokeColor=inherit;overflow=hidden;fillColor=none;top=0;left=0;bottom=0;right=0;pointerEvents=1;" parent="KwdxTGRoU_PCcNSmUWH1-7" vertex="1">
          <mxGeometry x="20" width="120" height="22" as="geometry">
            <mxRectangle width="120" height="22" as="alternateBounds" />
          </mxGeometry>
        </mxCell>
        <mxCell id="KwdxTGRoU_PCcNSmUWH1-11" value="" style="shape=tableRow;horizontal=0;startSize=0;swimlaneHead=0;swimlaneBody=0;strokeColor=inherit;top=0;left=0;bottom=0;right=0;collapsible=0;dropTarget=0;fillColor=none;points=[[0,0.5],[1,0.5]];portConstraint=eastwest;" parent="KwdxTGRoU_PCcNSmUWH1-2" vertex="1">
          <mxGeometry y="72" width="140" height="24" as="geometry" />
        </mxCell>
        <mxCell id="KwdxTGRoU_PCcNSmUWH1-12" value="3" style="shape=partialRectangle;html=1;whiteSpace=wrap;connectable=0;strokeColor=inherit;overflow=hidden;fillColor=none;top=0;left=0;bottom=0;right=0;pointerEvents=1;" parent="KwdxTGRoU_PCcNSmUWH1-11" vertex="1">
          <mxGeometry width="20" height="24" as="geometry">
            <mxRectangle width="20" height="24" as="alternateBounds" />
          </mxGeometry>
        </mxCell>
        <mxCell id="KwdxTGRoU_PCcNSmUWH1-13" value="Hypothesis" style="shape=partialRectangle;html=1;whiteSpace=wrap;connectable=0;strokeColor=inherit;overflow=hidden;fillColor=none;top=0;left=0;bottom=0;right=0;pointerEvents=1;" parent="KwdxTGRoU_PCcNSmUWH1-11" vertex="1">
          <mxGeometry x="20" width="120" height="24" as="geometry">
            <mxRectangle width="120" height="24" as="alternateBounds" />
          </mxGeometry>
        </mxCell>
        <mxCell id="KwdxTGRoU_PCcNSmUWH1-15" value="" style="shape=tableRow;horizontal=0;startSize=0;swimlaneHead=0;swimlaneBody=0;strokeColor=inherit;top=0;left=0;bottom=0;right=0;collapsible=0;dropTarget=0;fillColor=none;points=[[0,0.5],[1,0.5]];portConstraint=eastwest;" parent="KwdxTGRoU_PCcNSmUWH1-2" vertex="1">
          <mxGeometry y="96" width="140" height="20" as="geometry" />
        </mxCell>
        <mxCell id="KwdxTGRoU_PCcNSmUWH1-16" value="4" style="shape=partialRectangle;html=1;whiteSpace=wrap;connectable=0;strokeColor=inherit;overflow=hidden;fillColor=none;top=0;left=0;bottom=0;right=0;pointerEvents=1;" parent="KwdxTGRoU_PCcNSmUWH1-15" vertex="1">
          <mxGeometry width="20" height="20" as="geometry">
            <mxRectangle width="20" height="20" as="alternateBounds" />
          </mxGeometry>
        </mxCell>
        <mxCell id="KwdxTGRoU_PCcNSmUWH1-17" value="Princple" style="shape=partialRectangle;html=1;whiteSpace=wrap;connectable=0;strokeColor=inherit;overflow=hidden;fillColor=none;top=0;left=0;bottom=0;right=0;pointerEvents=1;" parent="KwdxTGRoU_PCcNSmUWH1-15" vertex="1">
          <mxGeometry x="20" width="120" height="20" as="geometry">
            <mxRectangle width="120" height="20" as="alternateBounds" />
          </mxGeometry>
        </mxCell>
        <mxCell id="KwdxTGRoU_PCcNSmUWH1-19" value="" style="shape=tableRow;horizontal=0;startSize=0;swimlaneHead=0;swimlaneBody=0;strokeColor=inherit;top=0;left=0;bottom=0;right=0;collapsible=0;dropTarget=0;fillColor=none;points=[[0,0.5],[1,0.5]];portConstraint=eastwest;" parent="KwdxTGRoU_PCcNSmUWH1-2" vertex="1">
          <mxGeometry y="116" width="140" height="19" as="geometry" />
        </mxCell>
        <mxCell id="KwdxTGRoU_PCcNSmUWH1-20" value="5" style="shape=partialRectangle;html=1;whiteSpace=wrap;connectable=0;strokeColor=inherit;overflow=hidden;fillColor=none;top=0;left=0;bottom=0;right=0;pointerEvents=1;" parent="KwdxTGRoU_PCcNSmUWH1-19" vertex="1">
          <mxGeometry width="20" height="19" as="geometry">
            <mxRectangle width="20" height="19" as="alternateBounds" />
          </mxGeometry>
        </mxCell>
        <mxCell id="KwdxTGRoU_PCcNSmUWH1-21" value="Data" style="shape=partialRectangle;html=1;whiteSpace=wrap;connectable=0;strokeColor=inherit;overflow=hidden;fillColor=none;top=0;left=0;bottom=0;right=0;pointerEvents=1;" parent="KwdxTGRoU_PCcNSmUWH1-19" vertex="1">
          <mxGeometry x="20" width="120" height="19" as="geometry">
            <mxRectangle width="120" height="19" as="alternateBounds" />
          </mxGeometry>
        </mxCell>
        <mxCell id="KwdxTGRoU_PCcNSmUWH1-23" value="" style="shape=tableRow;horizontal=0;startSize=0;swimlaneHead=0;swimlaneBody=0;strokeColor=inherit;top=0;left=0;bottom=0;right=0;collapsible=0;dropTarget=0;fillColor=none;points=[[0,0.5],[1,0.5]];portConstraint=eastwest;" parent="KwdxTGRoU_PCcNSmUWH1-2" vertex="1">
          <mxGeometry y="135" width="140" height="17" as="geometry" />
        </mxCell>
        <mxCell id="KwdxTGRoU_PCcNSmUWH1-24" value="6" style="shape=partialRectangle;html=1;whiteSpace=wrap;connectable=0;strokeColor=inherit;overflow=hidden;fillColor=none;top=0;left=0;bottom=0;right=0;pointerEvents=1;" parent="KwdxTGRoU_PCcNSmUWH1-23" vertex="1">
          <mxGeometry width="20" height="17" as="geometry">
            <mxRectangle width="20" height="17" as="alternateBounds" />
          </mxGeometry>
        </mxCell>
        <mxCell id="KwdxTGRoU_PCcNSmUWH1-25" value="Research" style="shape=partialRectangle;html=1;whiteSpace=wrap;connectable=0;strokeColor=inherit;overflow=hidden;fillColor=none;top=0;left=0;bottom=0;right=0;pointerEvents=1;" parent="KwdxTGRoU_PCcNSmUWH1-23" vertex="1">
          <mxGeometry x="20" width="120" height="17" as="geometry">
            <mxRectangle width="120" height="17" as="alternateBounds" />
          </mxGeometry>
        </mxCell>
        <mxCell id="KwdxTGRoU_PCcNSmUWH1-27" value="" style="shape=tableRow;horizontal=0;startSize=0;swimlaneHead=0;swimlaneBody=0;strokeColor=inherit;top=0;left=0;bottom=0;right=0;collapsible=0;dropTarget=0;fillColor=none;points=[[0,0.5],[1,0.5]];portConstraint=eastwest;" parent="KwdxTGRoU_PCcNSmUWH1-2" vertex="1">
          <mxGeometry y="152" width="140" height="19" as="geometry" />
        </mxCell>
        <mxCell id="KwdxTGRoU_PCcNSmUWH1-28" value="7" style="shape=partialRectangle;html=1;whiteSpace=wrap;connectable=0;strokeColor=inherit;overflow=hidden;fillColor=none;top=0;left=0;bottom=0;right=0;pointerEvents=1;" parent="KwdxTGRoU_PCcNSmUWH1-27" vertex="1">
          <mxGeometry width="20" height="19" as="geometry">
            <mxRectangle width="20" height="19" as="alternateBounds" />
          </mxGeometry>
        </mxCell>
        <mxCell id="KwdxTGRoU_PCcNSmUWH1-29" value="Evidence" style="shape=partialRectangle;html=1;whiteSpace=wrap;connectable=0;strokeColor=inherit;overflow=hidden;fillColor=none;top=0;left=0;bottom=0;right=0;pointerEvents=1;" parent="KwdxTGRoU_PCcNSmUWH1-27" vertex="1">
          <mxGeometry x="20" width="120" height="19" as="geometry">
            <mxRectangle width="120" height="19" as="alternateBounds" />
          </mxGeometry>
        </mxCell>
        <mxCell id="KwdxTGRoU_PCcNSmUWH1-31" value="" style="shape=tableRow;horizontal=0;startSize=0;swimlaneHead=0;swimlaneBody=0;strokeColor=inherit;top=0;left=0;bottom=0;right=0;collapsible=0;dropTarget=0;fillColor=none;points=[[0,0.5],[1,0.5]];portConstraint=eastwest;" parent="KwdxTGRoU_PCcNSmUWH1-2" vertex="1">
          <mxGeometry y="171" width="140" height="17" as="geometry" />
        </mxCell>
        <mxCell id="KwdxTGRoU_PCcNSmUWH1-32" value="8" style="shape=partialRectangle;html=1;whiteSpace=wrap;connectable=0;strokeColor=inherit;overflow=hidden;fillColor=none;top=0;left=0;bottom=0;right=0;pointerEvents=1;" parent="KwdxTGRoU_PCcNSmUWH1-31" vertex="1">
          <mxGeometry width="20" height="17" as="geometry">
            <mxRectangle width="20" height="17" as="alternateBounds" />
          </mxGeometry>
        </mxCell>
        <mxCell id="KwdxTGRoU_PCcNSmUWH1-33" value="Theory" style="shape=partialRectangle;html=1;whiteSpace=wrap;connectable=0;strokeColor=inherit;overflow=hidden;fillColor=none;top=0;left=0;bottom=0;right=0;pointerEvents=1;" parent="KwdxTGRoU_PCcNSmUWH1-31" vertex="1">
          <mxGeometry x="20" width="120" height="17" as="geometry">
            <mxRectangle width="120" height="17" as="alternateBounds" />
          </mxGeometry>
        </mxCell>
        <mxCell id="KwdxTGRoU_PCcNSmUWH1-35" value="" style="shape=tableRow;horizontal=0;startSize=0;swimlaneHead=0;swimlaneBody=0;strokeColor=inherit;top=0;left=0;bottom=0;right=0;collapsible=0;dropTarget=0;fillColor=none;points=[[0,0.5],[1,0.5]];portConstraint=eastwest;" parent="KwdxTGRoU_PCcNSmUWH1-2" vertex="1">
          <mxGeometry y="188" width="140" height="19" as="geometry" />
        </mxCell>
        <mxCell id="KwdxTGRoU_PCcNSmUWH1-36" value="9" style="shape=partialRectangle;html=1;whiteSpace=wrap;connectable=0;strokeColor=inherit;overflow=hidden;fillColor=none;top=0;left=0;bottom=0;right=0;pointerEvents=1;" parent="KwdxTGRoU_PCcNSmUWH1-35" vertex="1">
          <mxGeometry width="20" height="19" as="geometry">
            <mxRectangle width="20" height="19" as="alternateBounds" />
          </mxGeometry>
        </mxCell>
        <mxCell id="KwdxTGRoU_PCcNSmUWH1-37" value="Methodology" style="shape=partialRectangle;html=1;whiteSpace=wrap;connectable=0;strokeColor=inherit;overflow=hidden;fillColor=none;top=0;left=0;bottom=0;right=0;pointerEvents=1;" parent="KwdxTGRoU_PCcNSmUWH1-35" vertex="1">
          <mxGeometry x="20" width="120" height="19" as="geometry">
            <mxRectangle width="120" height="19" as="alternateBounds" />
          </mxGeometry>
        </mxCell>
        <mxCell id="KwdxTGRoU_PCcNSmUWH1-39" value="" style="shape=tableRow;horizontal=0;startSize=0;swimlaneHead=0;swimlaneBody=0;strokeColor=inherit;top=0;left=0;bottom=0;right=0;collapsible=0;dropTarget=0;fillColor=none;points=[[0,0.5],[1,0.5]];portConstraint=eastwest;" parent="KwdxTGRoU_PCcNSmUWH1-2" vertex="1">
          <mxGeometry y="207" width="140" height="17" as="geometry" />
        </mxCell>
        <mxCell id="KwdxTGRoU_PCcNSmUWH1-40" value="10" style="shape=partialRectangle;html=1;whiteSpace=wrap;connectable=0;strokeColor=inherit;overflow=hidden;fillColor=none;top=0;left=0;bottom=0;right=0;pointerEvents=1;" parent="KwdxTGRoU_PCcNSmUWH1-39" vertex="1">
          <mxGeometry width="20" height="17" as="geometry">
            <mxRectangle width="20" height="17" as="alternateBounds" />
          </mxGeometry>
        </mxCell>
        <mxCell id="KwdxTGRoU_PCcNSmUWH1-41" value="Practice" style="shape=partialRectangle;html=1;whiteSpace=wrap;connectable=0;strokeColor=inherit;overflow=hidden;fillColor=none;top=0;left=0;bottom=0;right=0;pointerEvents=1;" parent="KwdxTGRoU_PCcNSmUWH1-39" vertex="1">
          <mxGeometry x="20" width="120" height="17" as="geometry">
            <mxRectangle width="120" height="17" as="alternateBounds" />
          </mxGeometry>
        </mxCell>
        <mxCell id="KwdxTGRoU_PCcNSmUWH1-43" value="" style="shape=tableRow;horizontal=0;startSize=0;swimlaneHead=0;swimlaneBody=0;strokeColor=inherit;top=0;left=0;bottom=0;right=0;collapsible=0;dropTarget=0;fillColor=none;points=[[0,0.5],[1,0.5]];portConstraint=eastwest;" parent="KwdxTGRoU_PCcNSmUWH1-2" vertex="1">
          <mxGeometry y="224" width="140" height="19" as="geometry" />
        </mxCell>
        <mxCell id="KwdxTGRoU_PCcNSmUWH1-44" value="11" style="shape=partialRectangle;html=1;whiteSpace=wrap;connectable=0;strokeColor=inherit;overflow=hidden;fillColor=none;top=0;left=0;bottom=0;right=0;pointerEvents=1;" parent="KwdxTGRoU_PCcNSmUWH1-43" vertex="1">
          <mxGeometry width="20" height="19" as="geometry">
            <mxRectangle width="20" height="19" as="alternateBounds" />
          </mxGeometry>
        </mxCell>
        <mxCell id="KwdxTGRoU_PCcNSmUWH1-45" value="Concept" style="shape=partialRectangle;html=1;whiteSpace=wrap;connectable=0;strokeColor=inherit;overflow=hidden;fillColor=none;top=0;left=0;bottom=0;right=0;pointerEvents=1;" parent="KwdxTGRoU_PCcNSmUWH1-43" vertex="1">
          <mxGeometry x="20" width="120" height="19" as="geometry">
            <mxRectangle width="120" height="19" as="alternateBounds" />
          </mxGeometry>
        </mxCell>
        <mxCell id="KwdxTGRoU_PCcNSmUWH1-47" value="" style="shape=tableRow;horizontal=0;startSize=0;swimlaneHead=0;swimlaneBody=0;strokeColor=inherit;top=0;left=0;bottom=0;right=0;collapsible=0;dropTarget=0;fillColor=none;points=[[0,0.5],[1,0.5]];portConstraint=eastwest;" parent="KwdxTGRoU_PCcNSmUWH1-2" vertex="1">
          <mxGeometry y="243" width="140" height="17" as="geometry" />
        </mxCell>
        <mxCell id="KwdxTGRoU_PCcNSmUWH1-48" value="12" style="shape=partialRectangle;html=1;whiteSpace=wrap;connectable=0;strokeColor=inherit;overflow=hidden;fillColor=none;top=0;left=0;bottom=0;right=0;pointerEvents=1;" parent="KwdxTGRoU_PCcNSmUWH1-47" vertex="1">
          <mxGeometry width="20" height="17" as="geometry">
            <mxRectangle width="20" height="17" as="alternateBounds" />
          </mxGeometry>
        </mxCell>
        <mxCell id="KwdxTGRoU_PCcNSmUWH1-49" value="Perspective" style="shape=partialRectangle;html=1;whiteSpace=wrap;connectable=0;strokeColor=inherit;overflow=hidden;fillColor=none;top=0;left=0;bottom=0;right=0;pointerEvents=1;" parent="KwdxTGRoU_PCcNSmUWH1-47" vertex="1">
          <mxGeometry x="20" width="120" height="17" as="geometry">
            <mxRectangle width="120" height="17" as="alternateBounds" />
          </mxGeometry>
        </mxCell>
        <mxCell id="KwdxTGRoU_PCcNSmUWH1-51" value="" style="shape=tableRow;horizontal=0;startSize=0;swimlaneHead=0;swimlaneBody=0;strokeColor=inherit;top=0;left=0;bottom=0;right=0;collapsible=0;dropTarget=0;fillColor=none;points=[[0,0.5],[1,0.5]];portConstraint=eastwest;" parent="KwdxTGRoU_PCcNSmUWH1-2" vertex="1">
          <mxGeometry y="260" width="140" height="19" as="geometry" />
        </mxCell>
        <mxCell id="KwdxTGRoU_PCcNSmUWH1-52" value="13" style="shape=partialRectangle;html=1;whiteSpace=wrap;connectable=0;strokeColor=inherit;overflow=hidden;fillColor=none;top=0;left=0;bottom=0;right=0;pointerEvents=1;" parent="KwdxTGRoU_PCcNSmUWH1-51" vertex="1">
          <mxGeometry width="20" height="19" as="geometry">
            <mxRectangle width="20" height="19" as="alternateBounds" />
          </mxGeometry>
        </mxCell>
        <mxCell id="KwdxTGRoU_PCcNSmUWH1-53" value="Innovation" style="shape=partialRectangle;html=1;whiteSpace=wrap;connectable=0;strokeColor=inherit;overflow=hidden;fillColor=none;top=0;left=0;bottom=0;right=0;pointerEvents=1;" parent="KwdxTGRoU_PCcNSmUWH1-51" vertex="1">
          <mxGeometry x="20" width="120" height="19" as="geometry">
            <mxRectangle width="120" height="19" as="alternateBounds" />
          </mxGeometry>
        </mxCell>
        <mxCell id="KwdxTGRoU_PCcNSmUWH1-55" value="" style="shape=tableRow;horizontal=0;startSize=0;swimlaneHead=0;swimlaneBody=0;strokeColor=inherit;top=0;left=0;bottom=0;right=0;collapsible=0;dropTarget=0;fillColor=none;points=[[0,0.5],[1,0.5]];portConstraint=eastwest;" parent="KwdxTGRoU_PCcNSmUWH1-2" vertex="1">
          <mxGeometry y="279" width="140" height="17" as="geometry" />
        </mxCell>
        <mxCell id="KwdxTGRoU_PCcNSmUWH1-56" value="14" style="shape=partialRectangle;html=1;whiteSpace=wrap;connectable=0;strokeColor=inherit;overflow=hidden;fillColor=none;top=0;left=0;bottom=0;right=0;pointerEvents=1;" parent="KwdxTGRoU_PCcNSmUWH1-55" vertex="1">
          <mxGeometry width="20" height="17" as="geometry">
            <mxRectangle width="20" height="17" as="alternateBounds" />
          </mxGeometry>
        </mxCell>
        <mxCell id="KwdxTGRoU_PCcNSmUWH1-57" value="Strategy" style="shape=partialRectangle;html=1;whiteSpace=wrap;connectable=0;strokeColor=inherit;overflow=hidden;fillColor=none;top=0;left=0;bottom=0;right=0;pointerEvents=1;" parent="KwdxTGRoU_PCcNSmUWH1-55" vertex="1">
          <mxGeometry x="20" width="120" height="17" as="geometry">
            <mxRectangle width="120" height="17" as="alternateBounds" />
          </mxGeometry>
        </mxCell>
        <mxCell id="KwdxTGRoU_PCcNSmUWH1-59" value="" style="shape=tableRow;horizontal=0;startSize=0;swimlaneHead=0;swimlaneBody=0;strokeColor=inherit;top=0;left=0;bottom=0;right=0;collapsible=0;dropTarget=0;fillColor=none;points=[[0,0.5],[1,0.5]];portConstraint=eastwest;" parent="KwdxTGRoU_PCcNSmUWH1-2" vertex="1">
          <mxGeometry y="296" width="140" height="19" as="geometry" />
        </mxCell>
        <mxCell id="KwdxTGRoU_PCcNSmUWH1-60" value="15" style="shape=partialRectangle;html=1;whiteSpace=wrap;connectable=0;strokeColor=inherit;overflow=hidden;fillColor=none;top=0;left=0;bottom=0;right=0;pointerEvents=1;" parent="KwdxTGRoU_PCcNSmUWH1-59" vertex="1">
          <mxGeometry width="20" height="19" as="geometry">
            <mxRectangle width="20" height="19" as="alternateBounds" />
          </mxGeometry>
        </mxCell>
        <mxCell id="KwdxTGRoU_PCcNSmUWH1-61" value="Evaluation&amp;nbsp;" style="shape=partialRectangle;html=1;whiteSpace=wrap;connectable=0;strokeColor=inherit;overflow=hidden;fillColor=none;top=0;left=0;bottom=0;right=0;pointerEvents=1;" parent="KwdxTGRoU_PCcNSmUWH1-59" vertex="1">
          <mxGeometry x="20" width="120" height="19" as="geometry">
            <mxRectangle width="120" height="19" as="alternateBounds" />
          </mxGeometry>
        </mxCell>
        <mxCell id="KwdxTGRoU_PCcNSmUWH1-63" value="" style="shape=tableRow;horizontal=0;startSize=0;swimlaneHead=0;swimlaneBody=0;strokeColor=inherit;top=0;left=0;bottom=0;right=0;collapsible=0;dropTarget=0;fillColor=none;points=[[0,0.5],[1,0.5]];portConstraint=eastwest;" parent="KwdxTGRoU_PCcNSmUWH1-2" vertex="1">
          <mxGeometry y="315" width="140" height="17" as="geometry" />
        </mxCell>
        <mxCell id="KwdxTGRoU_PCcNSmUWH1-64" value="16" style="shape=partialRectangle;html=1;whiteSpace=wrap;connectable=0;strokeColor=inherit;overflow=hidden;fillColor=none;top=0;left=0;bottom=0;right=0;pointerEvents=1;" parent="KwdxTGRoU_PCcNSmUWH1-63" vertex="1">
          <mxGeometry width="20" height="17" as="geometry">
            <mxRectangle width="20" height="17" as="alternateBounds" />
          </mxGeometry>
        </mxCell>
        <mxCell id="KwdxTGRoU_PCcNSmUWH1-65" value="Objective" style="shape=partialRectangle;html=1;whiteSpace=wrap;connectable=0;strokeColor=inherit;overflow=hidden;fillColor=none;top=0;left=0;bottom=0;right=0;pointerEvents=1;" parent="KwdxTGRoU_PCcNSmUWH1-63" vertex="1">
          <mxGeometry x="20" width="120" height="17" as="geometry">
            <mxRectangle width="120" height="17" as="alternateBounds" />
          </mxGeometry>
        </mxCell>
        <mxCell id="KwdxTGRoU_PCcNSmUWH1-67" value="" style="shape=tableRow;horizontal=0;startSize=0;swimlaneHead=0;swimlaneBody=0;strokeColor=inherit;top=0;left=0;bottom=0;right=0;collapsible=0;dropTarget=0;fillColor=none;points=[[0,0.5],[1,0.5]];portConstraint=eastwest;" parent="KwdxTGRoU_PCcNSmUWH1-2" vertex="1">
          <mxGeometry y="332" width="140" height="19" as="geometry" />
        </mxCell>
        <mxCell id="KwdxTGRoU_PCcNSmUWH1-68" value="17" style="shape=partialRectangle;html=1;whiteSpace=wrap;connectable=0;strokeColor=inherit;overflow=hidden;fillColor=none;top=0;left=0;bottom=0;right=0;pointerEvents=1;" parent="KwdxTGRoU_PCcNSmUWH1-67" vertex="1">
          <mxGeometry width="20" height="19" as="geometry">
            <mxRectangle width="20" height="19" as="alternateBounds" />
          </mxGeometry>
        </mxCell>
        <mxCell id="KwdxTGRoU_PCcNSmUWH1-69" value="Experiment" style="shape=partialRectangle;html=1;whiteSpace=wrap;connectable=0;strokeColor=inherit;overflow=hidden;fillColor=none;top=0;left=0;bottom=0;right=0;pointerEvents=1;" parent="KwdxTGRoU_PCcNSmUWH1-67" vertex="1">
          <mxGeometry x="20" width="120" height="19" as="geometry">
            <mxRectangle width="120" height="19" as="alternateBounds" />
          </mxGeometry>
        </mxCell>
        <mxCell id="KwdxTGRoU_PCcNSmUWH1-71" value="" style="shape=tableRow;horizontal=0;startSize=0;swimlaneHead=0;swimlaneBody=0;strokeColor=inherit;top=0;left=0;bottom=0;right=0;collapsible=0;dropTarget=0;fillColor=none;points=[[0,0.5],[1,0.5]];portConstraint=eastwest;" parent="KwdxTGRoU_PCcNSmUWH1-2" vertex="1">
          <mxGeometry y="351" width="140" height="17" as="geometry" />
        </mxCell>
        <mxCell id="KwdxTGRoU_PCcNSmUWH1-72" value="18" style="shape=partialRectangle;html=1;whiteSpace=wrap;connectable=0;strokeColor=inherit;overflow=hidden;fillColor=none;top=0;left=0;bottom=0;right=0;pointerEvents=1;" parent="KwdxTGRoU_PCcNSmUWH1-71" vertex="1">
          <mxGeometry width="20" height="17" as="geometry">
            <mxRectangle width="20" height="17" as="alternateBounds" />
          </mxGeometry>
        </mxCell>
        <mxCell id="KwdxTGRoU_PCcNSmUWH1-73" value="Implementation" style="shape=partialRectangle;html=1;whiteSpace=wrap;connectable=0;strokeColor=inherit;overflow=hidden;fillColor=none;top=0;left=0;bottom=0;right=0;pointerEvents=1;" parent="KwdxTGRoU_PCcNSmUWH1-71" vertex="1">
          <mxGeometry x="20" width="120" height="17" as="geometry">
            <mxRectangle width="120" height="17" as="alternateBounds" />
          </mxGeometry>
        </mxCell>
        <mxCell id="KwdxTGRoU_PCcNSmUWH1-75" value="" style="shape=tableRow;horizontal=0;startSize=0;swimlaneHead=0;swimlaneBody=0;strokeColor=inherit;top=0;left=0;bottom=0;right=0;collapsible=0;dropTarget=0;fillColor=none;points=[[0,0.5],[1,0.5]];portConstraint=eastwest;" parent="KwdxTGRoU_PCcNSmUWH1-2" vertex="1">
          <mxGeometry y="368" width="140" height="18" as="geometry" />
        </mxCell>
        <mxCell id="KwdxTGRoU_PCcNSmUWH1-76" value="19" style="shape=partialRectangle;html=1;whiteSpace=wrap;connectable=0;strokeColor=inherit;overflow=hidden;fillColor=none;top=0;left=0;bottom=0;right=0;pointerEvents=1;" parent="KwdxTGRoU_PCcNSmUWH1-75" vertex="1">
          <mxGeometry width="20" height="18" as="geometry">
            <mxRectangle width="20" height="18" as="alternateBounds" />
          </mxGeometry>
        </mxCell>
        <mxCell id="KwdxTGRoU_PCcNSmUWH1-77" value="Outcome" style="shape=partialRectangle;html=1;whiteSpace=wrap;connectable=0;strokeColor=inherit;overflow=hidden;fillColor=none;top=0;left=0;bottom=0;right=0;pointerEvents=1;" parent="KwdxTGRoU_PCcNSmUWH1-75" vertex="1">
          <mxGeometry x="20" width="120" height="18" as="geometry">
            <mxRectangle width="120" height="18" as="alternateBounds" />
          </mxGeometry>
        </mxCell>
        <mxCell id="KwdxTGRoU_PCcNSmUWH1-79" value="" style="shape=tableRow;horizontal=0;startSize=0;swimlaneHead=0;swimlaneBody=0;strokeColor=inherit;top=0;left=0;bottom=0;right=0;collapsible=0;dropTarget=0;fillColor=none;points=[[0,0.5],[1,0.5]];portConstraint=eastwest;" parent="KwdxTGRoU_PCcNSmUWH1-2" vertex="1">
          <mxGeometry y="386" width="140" height="18" as="geometry" />
        </mxCell>
        <mxCell id="KwdxTGRoU_PCcNSmUWH1-80" value="20" style="shape=partialRectangle;html=1;whiteSpace=wrap;connectable=0;strokeColor=inherit;overflow=hidden;fillColor=none;top=0;left=0;bottom=0;right=0;pointerEvents=1;" parent="KwdxTGRoU_PCcNSmUWH1-79" vertex="1">
          <mxGeometry width="20" height="18" as="geometry">
            <mxRectangle width="20" height="18" as="alternateBounds" />
          </mxGeometry>
        </mxCell>
        <mxCell id="KwdxTGRoU_PCcNSmUWH1-81" value="Resource" style="shape=partialRectangle;html=1;whiteSpace=wrap;connectable=0;strokeColor=inherit;overflow=hidden;fillColor=none;top=0;left=0;bottom=0;right=0;pointerEvents=1;" parent="KwdxTGRoU_PCcNSmUWH1-79" vertex="1">
          <mxGeometry x="20" width="120" height="18" as="geometry">
            <mxRectangle width="120" height="18" as="alternateBounds" />
          </mxGeometry>
        </mxCell>
        <mxCell id="KwdxTGRoU_PCcNSmUWH1-103" value="Grand Design Lanaguage Types" style="shape=table;startSize=30;container=1;collapsible=0;childLayout=tableLayout;" parent="1" vertex="1">
          <mxGeometry x="240" y="60" width="200" height="370" as="geometry" />
        </mxCell>
        <mxCell id="KwdxTGRoU_PCcNSmUWH1-104" value="" style="shape=tableRow;horizontal=0;startSize=0;swimlaneHead=0;swimlaneBody=0;strokeColor=inherit;top=0;left=0;bottom=0;right=0;collapsible=0;dropTarget=0;fillColor=none;points=[[0,0.5],[1,0.5]];portConstraint=eastwest;" parent="KwdxTGRoU_PCcNSmUWH1-103" vertex="1">
          <mxGeometry y="30" width="200" height="50" as="geometry" />
        </mxCell>
        <mxCell id="KwdxTGRoU_PCcNSmUWH1-170" value="1" style="shape=partialRectangle;html=1;whiteSpace=wrap;connectable=0;strokeColor=inherit;overflow=hidden;fillColor=none;top=0;left=0;bottom=0;right=0;pointerEvents=1;" parent="KwdxTGRoU_PCcNSmUWH1-104" vertex="1">
          <mxGeometry width="20" height="50" as="geometry">
            <mxRectangle width="20" height="50" as="alternateBounds" />
          </mxGeometry>
        </mxCell>
        <mxCell id="KwdxTGRoU_PCcNSmUWH1-105" value="2" style="shape=partialRectangle;html=1;whiteSpace=wrap;connectable=0;strokeColor=inherit;overflow=hidden;fillColor=none;top=0;left=0;bottom=0;right=0;pointerEvents=1;" parent="KwdxTGRoU_PCcNSmUWH1-104" vertex="1">
          <mxGeometry x="20" width="20" height="50" as="geometry">
            <mxRectangle width="20" height="50" as="alternateBounds" />
          </mxGeometry>
        </mxCell>
        <mxCell id="KwdxTGRoU_PCcNSmUWH1-106" value="Conclusion" style="shape=partialRectangle;html=1;whiteSpace=wrap;connectable=0;strokeColor=inherit;overflow=hidden;fillColor=none;top=0;left=0;bottom=0;right=0;pointerEvents=1;" parent="KwdxTGRoU_PCcNSmUWH1-104" vertex="1">
          <mxGeometry x="40" width="160" height="50" as="geometry">
            <mxRectangle width="160" height="50" as="alternateBounds" />
          </mxGeometry>
        </mxCell>
        <mxCell id="KwdxTGRoU_PCcNSmUWH1-107" value="" style="shape=tableRow;horizontal=0;startSize=0;swimlaneHead=0;swimlaneBody=0;strokeColor=inherit;top=0;left=0;bottom=0;right=0;collapsible=0;dropTarget=0;fillColor=none;points=[[0,0.5],[1,0.5]];portConstraint=eastwest;" parent="KwdxTGRoU_PCcNSmUWH1-103" vertex="1">
          <mxGeometry y="80" width="200" height="50" as="geometry" />
        </mxCell>
        <mxCell id="KwdxTGRoU_PCcNSmUWH1-171" value="2" style="shape=partialRectangle;html=1;whiteSpace=wrap;connectable=0;strokeColor=inherit;overflow=hidden;fillColor=none;top=0;left=0;bottom=0;right=0;pointerEvents=1;" parent="KwdxTGRoU_PCcNSmUWH1-107" vertex="1">
          <mxGeometry width="20" height="50" as="geometry">
            <mxRectangle width="20" height="50" as="alternateBounds" />
          </mxGeometry>
        </mxCell>
        <mxCell id="KwdxTGRoU_PCcNSmUWH1-108" value="4" style="shape=partialRectangle;html=1;whiteSpace=wrap;connectable=0;strokeColor=inherit;overflow=hidden;fillColor=none;top=0;left=0;bottom=0;right=0;pointerEvents=1;" parent="KwdxTGRoU_PCcNSmUWH1-107" vertex="1">
          <mxGeometry x="20" width="20" height="50" as="geometry">
            <mxRectangle width="20" height="50" as="alternateBounds" />
          </mxGeometry>
        </mxCell>
        <mxCell id="KwdxTGRoU_PCcNSmUWH1-109" value="Principle" style="shape=partialRectangle;html=1;whiteSpace=wrap;connectable=0;strokeColor=inherit;overflow=hidden;fillColor=none;top=0;left=0;bottom=0;right=0;pointerEvents=1;" parent="KwdxTGRoU_PCcNSmUWH1-107" vertex="1">
          <mxGeometry x="40" width="160" height="50" as="geometry">
            <mxRectangle width="160" height="50" as="alternateBounds" />
          </mxGeometry>
        </mxCell>
        <mxCell id="KwdxTGRoU_PCcNSmUWH1-110" value="" style="shape=tableRow;horizontal=0;startSize=0;swimlaneHead=0;swimlaneBody=0;strokeColor=inherit;top=0;left=0;bottom=0;right=0;collapsible=0;dropTarget=0;fillColor=none;points=[[0,0.5],[1,0.5]];portConstraint=eastwest;" parent="KwdxTGRoU_PCcNSmUWH1-103" vertex="1">
          <mxGeometry y="130" width="200" height="50" as="geometry" />
        </mxCell>
        <mxCell id="KwdxTGRoU_PCcNSmUWH1-172" value="3" style="shape=partialRectangle;html=1;whiteSpace=wrap;connectable=0;strokeColor=inherit;overflow=hidden;fillColor=none;top=0;left=0;bottom=0;right=0;pointerEvents=1;" parent="KwdxTGRoU_PCcNSmUWH1-110" vertex="1">
          <mxGeometry width="20" height="50" as="geometry">
            <mxRectangle width="20" height="50" as="alternateBounds" />
          </mxGeometry>
        </mxCell>
        <mxCell id="KwdxTGRoU_PCcNSmUWH1-111" value="8" style="shape=partialRectangle;html=1;whiteSpace=wrap;connectable=0;strokeColor=inherit;overflow=hidden;fillColor=none;top=0;left=0;bottom=0;right=0;pointerEvents=1;" parent="KwdxTGRoU_PCcNSmUWH1-110" vertex="1">
          <mxGeometry x="20" width="20" height="50" as="geometry">
            <mxRectangle width="20" height="50" as="alternateBounds" />
          </mxGeometry>
        </mxCell>
        <mxCell id="KwdxTGRoU_PCcNSmUWH1-112" value="Theory" style="shape=partialRectangle;html=1;whiteSpace=wrap;connectable=0;strokeColor=inherit;overflow=hidden;fillColor=none;top=0;left=0;bottom=0;right=0;pointerEvents=1;" parent="KwdxTGRoU_PCcNSmUWH1-110" vertex="1">
          <mxGeometry x="40" width="160" height="50" as="geometry">
            <mxRectangle width="160" height="50" as="alternateBounds" />
          </mxGeometry>
        </mxCell>
        <mxCell id="KwdxTGRoU_PCcNSmUWH1-113" value="" style="shape=tableRow;horizontal=0;startSize=0;swimlaneHead=0;swimlaneBody=0;strokeColor=inherit;top=0;left=0;bottom=0;right=0;collapsible=0;dropTarget=0;fillColor=none;points=[[0,0.5],[1,0.5]];portConstraint=eastwest;" parent="KwdxTGRoU_PCcNSmUWH1-103" vertex="1">
          <mxGeometry y="180" width="200" height="50" as="geometry" />
        </mxCell>
        <mxCell id="KwdxTGRoU_PCcNSmUWH1-173" value="4" style="shape=partialRectangle;html=1;whiteSpace=wrap;connectable=0;strokeColor=inherit;overflow=hidden;fillColor=none;top=0;left=0;bottom=0;right=0;pointerEvents=1;" parent="KwdxTGRoU_PCcNSmUWH1-113" vertex="1">
          <mxGeometry width="20" height="50" as="geometry">
            <mxRectangle width="20" height="50" as="alternateBounds" />
          </mxGeometry>
        </mxCell>
        <mxCell id="KwdxTGRoU_PCcNSmUWH1-114" value="9" style="shape=partialRectangle;html=1;whiteSpace=wrap;connectable=0;strokeColor=inherit;overflow=hidden;fillColor=none;top=0;left=0;bottom=0;right=0;pointerEvents=1;" parent="KwdxTGRoU_PCcNSmUWH1-113" vertex="1">
          <mxGeometry x="20" width="20" height="50" as="geometry">
            <mxRectangle width="20" height="50" as="alternateBounds" />
          </mxGeometry>
        </mxCell>
        <mxCell id="KwdxTGRoU_PCcNSmUWH1-115" value="Methodology" style="shape=partialRectangle;html=1;whiteSpace=wrap;connectable=0;strokeColor=inherit;overflow=hidden;fillColor=none;top=0;left=0;bottom=0;right=0;pointerEvents=1;" parent="KwdxTGRoU_PCcNSmUWH1-113" vertex="1">
          <mxGeometry x="40" width="160" height="50" as="geometry">
            <mxRectangle width="160" height="50" as="alternateBounds" />
          </mxGeometry>
        </mxCell>
        <mxCell id="KwdxTGRoU_PCcNSmUWH1-116" value="" style="shape=tableRow;horizontal=0;startSize=0;swimlaneHead=0;swimlaneBody=0;strokeColor=inherit;top=0;left=0;bottom=0;right=0;collapsible=0;dropTarget=0;fillColor=none;points=[[0,0.5],[1,0.5]];portConstraint=eastwest;" parent="KwdxTGRoU_PCcNSmUWH1-103" vertex="1">
          <mxGeometry y="230" width="200" height="40" as="geometry" />
        </mxCell>
        <mxCell id="KwdxTGRoU_PCcNSmUWH1-174" value="5" style="shape=partialRectangle;html=1;whiteSpace=wrap;connectable=0;strokeColor=inherit;overflow=hidden;fillColor=none;top=0;left=0;bottom=0;right=0;pointerEvents=1;" parent="KwdxTGRoU_PCcNSmUWH1-116" vertex="1">
          <mxGeometry width="20" height="40" as="geometry">
            <mxRectangle width="20" height="40" as="alternateBounds" />
          </mxGeometry>
        </mxCell>
        <mxCell id="KwdxTGRoU_PCcNSmUWH1-117" value="10" style="shape=partialRectangle;html=1;whiteSpace=wrap;connectable=0;strokeColor=inherit;overflow=hidden;fillColor=none;top=0;left=0;bottom=0;right=0;pointerEvents=1;" parent="KwdxTGRoU_PCcNSmUWH1-116" vertex="1">
          <mxGeometry x="20" width="20" height="40" as="geometry">
            <mxRectangle width="20" height="40" as="alternateBounds" />
          </mxGeometry>
        </mxCell>
        <mxCell id="KwdxTGRoU_PCcNSmUWH1-118" value="Practice" style="shape=partialRectangle;html=1;whiteSpace=wrap;connectable=0;strokeColor=inherit;overflow=hidden;fillColor=none;top=0;left=0;bottom=0;right=0;pointerEvents=1;" parent="KwdxTGRoU_PCcNSmUWH1-116" vertex="1">
          <mxGeometry x="40" width="160" height="40" as="geometry">
            <mxRectangle width="160" height="40" as="alternateBounds" />
          </mxGeometry>
        </mxCell>
        <mxCell id="KwdxTGRoU_PCcNSmUWH1-119" value="" style="shape=tableRow;horizontal=0;startSize=0;swimlaneHead=0;swimlaneBody=0;strokeColor=inherit;top=0;left=0;bottom=0;right=0;collapsible=0;dropTarget=0;fillColor=none;points=[[0,0.5],[1,0.5]];portConstraint=eastwest;" parent="KwdxTGRoU_PCcNSmUWH1-103" vertex="1">
          <mxGeometry y="270" width="200" height="50" as="geometry" />
        </mxCell>
        <mxCell id="KwdxTGRoU_PCcNSmUWH1-175" value="6" style="shape=partialRectangle;html=1;whiteSpace=wrap;connectable=0;strokeColor=inherit;overflow=hidden;fillColor=none;top=0;left=0;bottom=0;right=0;pointerEvents=1;" parent="KwdxTGRoU_PCcNSmUWH1-119" vertex="1">
          <mxGeometry width="20" height="50" as="geometry">
            <mxRectangle width="20" height="50" as="alternateBounds" />
          </mxGeometry>
        </mxCell>
        <mxCell id="KwdxTGRoU_PCcNSmUWH1-120" value="16" style="shape=partialRectangle;html=1;whiteSpace=wrap;connectable=0;strokeColor=inherit;overflow=hidden;fillColor=none;top=0;left=0;bottom=0;right=0;pointerEvents=1;" parent="KwdxTGRoU_PCcNSmUWH1-119" vertex="1">
          <mxGeometry x="20" width="20" height="50" as="geometry">
            <mxRectangle width="20" height="50" as="alternateBounds" />
          </mxGeometry>
        </mxCell>
        <mxCell id="KwdxTGRoU_PCcNSmUWH1-121" value="Objective" style="shape=partialRectangle;html=1;whiteSpace=wrap;connectable=0;strokeColor=inherit;overflow=hidden;fillColor=none;top=0;left=0;bottom=0;right=0;pointerEvents=1;" parent="KwdxTGRoU_PCcNSmUWH1-119" vertex="1">
          <mxGeometry x="40" width="160" height="50" as="geometry">
            <mxRectangle width="160" height="50" as="alternateBounds" />
          </mxGeometry>
        </mxCell>
        <mxCell id="KwdxTGRoU_PCcNSmUWH1-122" value="" style="shape=tableRow;horizontal=0;startSize=0;swimlaneHead=0;swimlaneBody=0;strokeColor=inherit;top=0;left=0;bottom=0;right=0;collapsible=0;dropTarget=0;fillColor=none;points=[[0,0.5],[1,0.5]];portConstraint=eastwest;" parent="KwdxTGRoU_PCcNSmUWH1-103" vertex="1">
          <mxGeometry y="320" width="200" height="50" as="geometry" />
        </mxCell>
        <mxCell id="KwdxTGRoU_PCcNSmUWH1-176" value="7" style="shape=partialRectangle;html=1;whiteSpace=wrap;connectable=0;strokeColor=inherit;overflow=hidden;fillColor=none;top=0;left=0;bottom=0;right=0;pointerEvents=1;" parent="KwdxTGRoU_PCcNSmUWH1-122" vertex="1">
          <mxGeometry width="20" height="50" as="geometry">
            <mxRectangle width="20" height="50" as="alternateBounds" />
          </mxGeometry>
        </mxCell>
        <mxCell id="KwdxTGRoU_PCcNSmUWH1-123" value="18" style="shape=partialRectangle;html=1;whiteSpace=wrap;connectable=0;strokeColor=inherit;overflow=hidden;fillColor=none;top=0;left=0;bottom=0;right=0;pointerEvents=1;" parent="KwdxTGRoU_PCcNSmUWH1-122" vertex="1">
          <mxGeometry x="20" width="20" height="50" as="geometry">
            <mxRectangle width="20" height="50" as="alternateBounds" />
          </mxGeometry>
        </mxCell>
        <mxCell id="KwdxTGRoU_PCcNSmUWH1-124" value="Implementation" style="shape=partialRectangle;html=1;whiteSpace=wrap;connectable=0;strokeColor=inherit;overflow=hidden;fillColor=none;top=0;left=0;bottom=0;right=0;pointerEvents=1;" parent="KwdxTGRoU_PCcNSmUWH1-122" vertex="1">
          <mxGeometry x="40" width="160" height="50" as="geometry">
            <mxRectangle width="160" height="50" as="alternateBounds" />
          </mxGeometry>
        </mxCell>
        <mxCell id="KwdxTGRoU_PCcNSmUWH1-125" value="Major Design Language Types" style="shape=table;startSize=30;container=1;collapsible=0;childLayout=tableLayout;" parent="1" vertex="1">
          <mxGeometry x="520" y="60" width="280" height="420" as="geometry" />
        </mxCell>
        <mxCell id="KwdxTGRoU_PCcNSmUWH1-126" value="" style="shape=tableRow;horizontal=0;startSize=0;swimlaneHead=0;swimlaneBody=0;strokeColor=inherit;top=0;left=0;bottom=0;right=0;collapsible=0;dropTarget=0;fillColor=none;points=[[0,0.5],[1,0.5]];portConstraint=eastwest;" parent="KwdxTGRoU_PCcNSmUWH1-125" vertex="1">
          <mxGeometry y="30" width="280" height="30" as="geometry" />
        </mxCell>
        <mxCell id="KwdxTGRoU_PCcNSmUWH1-177" value="1" style="shape=partialRectangle;html=1;whiteSpace=wrap;connectable=0;strokeColor=inherit;overflow=hidden;fillColor=none;top=0;left=0;bottom=0;right=0;pointerEvents=1;" parent="KwdxTGRoU_PCcNSmUWH1-126" vertex="1">
          <mxGeometry width="20" height="30" as="geometry">
            <mxRectangle width="20" height="30" as="alternateBounds" />
          </mxGeometry>
        </mxCell>
        <mxCell id="KwdxTGRoU_PCcNSmUWH1-127" value="1" style="shape=partialRectangle;html=1;whiteSpace=wrap;connectable=0;strokeColor=inherit;overflow=hidden;fillColor=none;top=0;left=0;bottom=0;right=0;pointerEvents=1;" parent="KwdxTGRoU_PCcNSmUWH1-126" vertex="1">
          <mxGeometry x="20" width="30" height="30" as="geometry">
            <mxRectangle width="30" height="30" as="alternateBounds" />
          </mxGeometry>
        </mxCell>
        <mxCell id="KwdxTGRoU_PCcNSmUWH1-128" value="Analysis" style="shape=partialRectangle;html=1;whiteSpace=wrap;connectable=0;strokeColor=inherit;overflow=hidden;fillColor=none;top=0;left=0;bottom=0;right=0;pointerEvents=1;" parent="KwdxTGRoU_PCcNSmUWH1-126" vertex="1">
          <mxGeometry x="50" width="230" height="30" as="geometry">
            <mxRectangle width="230" height="30" as="alternateBounds" />
          </mxGeometry>
        </mxCell>
        <mxCell id="KwdxTGRoU_PCcNSmUWH1-129" value="" style="shape=tableRow;horizontal=0;startSize=0;swimlaneHead=0;swimlaneBody=0;strokeColor=inherit;top=0;left=0;bottom=0;right=0;collapsible=0;dropTarget=0;fillColor=none;points=[[0,0.5],[1,0.5]];portConstraint=eastwest;" parent="KwdxTGRoU_PCcNSmUWH1-125" vertex="1">
          <mxGeometry y="60" width="280" height="30" as="geometry" />
        </mxCell>
        <mxCell id="KwdxTGRoU_PCcNSmUWH1-178" value="2" style="shape=partialRectangle;html=1;whiteSpace=wrap;connectable=0;strokeColor=inherit;overflow=hidden;fillColor=none;top=0;left=0;bottom=0;right=0;pointerEvents=1;" parent="KwdxTGRoU_PCcNSmUWH1-129" vertex="1">
          <mxGeometry width="20" height="30" as="geometry">
            <mxRectangle width="20" height="30" as="alternateBounds" />
          </mxGeometry>
        </mxCell>
        <mxCell id="KwdxTGRoU_PCcNSmUWH1-130" value="3" style="shape=partialRectangle;html=1;whiteSpace=wrap;connectable=0;strokeColor=inherit;overflow=hidden;fillColor=none;top=0;left=0;bottom=0;right=0;pointerEvents=1;" parent="KwdxTGRoU_PCcNSmUWH1-129" vertex="1">
          <mxGeometry x="20" width="30" height="30" as="geometry">
            <mxRectangle width="30" height="30" as="alternateBounds" />
          </mxGeometry>
        </mxCell>
        <mxCell id="KwdxTGRoU_PCcNSmUWH1-131" value="Hypothesis" style="shape=partialRectangle;html=1;whiteSpace=wrap;connectable=0;strokeColor=inherit;overflow=hidden;fillColor=none;top=0;left=0;bottom=0;right=0;pointerEvents=1;" parent="KwdxTGRoU_PCcNSmUWH1-129" vertex="1">
          <mxGeometry x="50" width="230" height="30" as="geometry">
            <mxRectangle width="230" height="30" as="alternateBounds" />
          </mxGeometry>
        </mxCell>
        <mxCell id="KwdxTGRoU_PCcNSmUWH1-132" value="" style="shape=tableRow;horizontal=0;startSize=0;swimlaneHead=0;swimlaneBody=0;strokeColor=inherit;top=0;left=0;bottom=0;right=0;collapsible=0;dropTarget=0;fillColor=none;points=[[0,0.5],[1,0.5]];portConstraint=eastwest;" parent="KwdxTGRoU_PCcNSmUWH1-125" vertex="1">
          <mxGeometry y="90" width="280" height="30" as="geometry" />
        </mxCell>
        <mxCell id="KwdxTGRoU_PCcNSmUWH1-179" value="3" style="shape=partialRectangle;html=1;whiteSpace=wrap;connectable=0;strokeColor=inherit;overflow=hidden;fillColor=none;top=0;left=0;bottom=0;right=0;pointerEvents=1;" parent="KwdxTGRoU_PCcNSmUWH1-132" vertex="1">
          <mxGeometry width="20" height="30" as="geometry">
            <mxRectangle width="20" height="30" as="alternateBounds" />
          </mxGeometry>
        </mxCell>
        <mxCell id="KwdxTGRoU_PCcNSmUWH1-133" value="5" style="shape=partialRectangle;html=1;whiteSpace=wrap;connectable=0;strokeColor=inherit;overflow=hidden;fillColor=none;top=0;left=0;bottom=0;right=0;pointerEvents=1;" parent="KwdxTGRoU_PCcNSmUWH1-132" vertex="1">
          <mxGeometry x="20" width="30" height="30" as="geometry">
            <mxRectangle width="30" height="30" as="alternateBounds" />
          </mxGeometry>
        </mxCell>
        <mxCell id="KwdxTGRoU_PCcNSmUWH1-134" value="Data" style="shape=partialRectangle;html=1;whiteSpace=wrap;connectable=0;strokeColor=inherit;overflow=hidden;fillColor=none;top=0;left=0;bottom=0;right=0;pointerEvents=1;" parent="KwdxTGRoU_PCcNSmUWH1-132" vertex="1">
          <mxGeometry x="50" width="230" height="30" as="geometry">
            <mxRectangle width="230" height="30" as="alternateBounds" />
          </mxGeometry>
        </mxCell>
        <mxCell id="KwdxTGRoU_PCcNSmUWH1-135" value="" style="shape=tableRow;horizontal=0;startSize=0;swimlaneHead=0;swimlaneBody=0;strokeColor=inherit;top=0;left=0;bottom=0;right=0;collapsible=0;dropTarget=0;fillColor=none;points=[[0,0.5],[1,0.5]];portConstraint=eastwest;" parent="KwdxTGRoU_PCcNSmUWH1-125" vertex="1">
          <mxGeometry y="120" width="280" height="30" as="geometry" />
        </mxCell>
        <mxCell id="KwdxTGRoU_PCcNSmUWH1-180" value="4" style="shape=partialRectangle;html=1;whiteSpace=wrap;connectable=0;strokeColor=inherit;overflow=hidden;fillColor=none;top=0;left=0;bottom=0;right=0;pointerEvents=1;" parent="KwdxTGRoU_PCcNSmUWH1-135" vertex="1">
          <mxGeometry width="20" height="30" as="geometry">
            <mxRectangle width="20" height="30" as="alternateBounds" />
          </mxGeometry>
        </mxCell>
        <mxCell id="KwdxTGRoU_PCcNSmUWH1-136" value="6" style="shape=partialRectangle;html=1;whiteSpace=wrap;connectable=0;strokeColor=inherit;overflow=hidden;fillColor=none;top=0;left=0;bottom=0;right=0;pointerEvents=1;" parent="KwdxTGRoU_PCcNSmUWH1-135" vertex="1">
          <mxGeometry x="20" width="30" height="30" as="geometry">
            <mxRectangle width="30" height="30" as="alternateBounds" />
          </mxGeometry>
        </mxCell>
        <mxCell id="KwdxTGRoU_PCcNSmUWH1-137" value="Research" style="shape=partialRectangle;html=1;whiteSpace=wrap;connectable=0;strokeColor=inherit;overflow=hidden;fillColor=none;top=0;left=0;bottom=0;right=0;pointerEvents=1;" parent="KwdxTGRoU_PCcNSmUWH1-135" vertex="1">
          <mxGeometry x="50" width="230" height="30" as="geometry">
            <mxRectangle width="230" height="30" as="alternateBounds" />
          </mxGeometry>
        </mxCell>
        <mxCell id="KwdxTGRoU_PCcNSmUWH1-138" value="" style="shape=tableRow;horizontal=0;startSize=0;swimlaneHead=0;swimlaneBody=0;strokeColor=inherit;top=0;left=0;bottom=0;right=0;collapsible=0;dropTarget=0;fillColor=none;points=[[0,0.5],[1,0.5]];portConstraint=eastwest;" parent="KwdxTGRoU_PCcNSmUWH1-125" vertex="1">
          <mxGeometry y="150" width="280" height="30" as="geometry" />
        </mxCell>
        <mxCell id="KwdxTGRoU_PCcNSmUWH1-181" value="5" style="shape=partialRectangle;html=1;whiteSpace=wrap;connectable=0;strokeColor=inherit;overflow=hidden;fillColor=none;top=0;left=0;bottom=0;right=0;pointerEvents=1;" parent="KwdxTGRoU_PCcNSmUWH1-138" vertex="1">
          <mxGeometry width="20" height="30" as="geometry">
            <mxRectangle width="20" height="30" as="alternateBounds" />
          </mxGeometry>
        </mxCell>
        <mxCell id="KwdxTGRoU_PCcNSmUWH1-139" value="7" style="shape=partialRectangle;html=1;whiteSpace=wrap;connectable=0;strokeColor=inherit;overflow=hidden;fillColor=none;top=0;left=0;bottom=0;right=0;pointerEvents=1;" parent="KwdxTGRoU_PCcNSmUWH1-138" vertex="1">
          <mxGeometry x="20" width="30" height="30" as="geometry">
            <mxRectangle width="30" height="30" as="alternateBounds" />
          </mxGeometry>
        </mxCell>
        <mxCell id="KwdxTGRoU_PCcNSmUWH1-140" value="Evidence" style="shape=partialRectangle;html=1;whiteSpace=wrap;connectable=0;strokeColor=inherit;overflow=hidden;fillColor=none;top=0;left=0;bottom=0;right=0;pointerEvents=1;" parent="KwdxTGRoU_PCcNSmUWH1-138" vertex="1">
          <mxGeometry x="50" width="230" height="30" as="geometry">
            <mxRectangle width="230" height="30" as="alternateBounds" />
          </mxGeometry>
        </mxCell>
        <mxCell id="KwdxTGRoU_PCcNSmUWH1-141" value="" style="shape=tableRow;horizontal=0;startSize=0;swimlaneHead=0;swimlaneBody=0;strokeColor=inherit;top=0;left=0;bottom=0;right=0;collapsible=0;dropTarget=0;fillColor=none;points=[[0,0.5],[1,0.5]];portConstraint=eastwest;" parent="KwdxTGRoU_PCcNSmUWH1-125" vertex="1">
          <mxGeometry y="180" width="280" height="30" as="geometry" />
        </mxCell>
        <mxCell id="KwdxTGRoU_PCcNSmUWH1-182" value="6" style="shape=partialRectangle;html=1;whiteSpace=wrap;connectable=0;strokeColor=inherit;overflow=hidden;fillColor=none;top=0;left=0;bottom=0;right=0;pointerEvents=1;" parent="KwdxTGRoU_PCcNSmUWH1-141" vertex="1">
          <mxGeometry width="20" height="30" as="geometry">
            <mxRectangle width="20" height="30" as="alternateBounds" />
          </mxGeometry>
        </mxCell>
        <mxCell id="KwdxTGRoU_PCcNSmUWH1-142" value="11" style="shape=partialRectangle;html=1;whiteSpace=wrap;connectable=0;strokeColor=inherit;overflow=hidden;fillColor=none;top=0;left=0;bottom=0;right=0;pointerEvents=1;" parent="KwdxTGRoU_PCcNSmUWH1-141" vertex="1">
          <mxGeometry x="20" width="30" height="30" as="geometry">
            <mxRectangle width="30" height="30" as="alternateBounds" />
          </mxGeometry>
        </mxCell>
        <mxCell id="KwdxTGRoU_PCcNSmUWH1-143" value="Concept" style="shape=partialRectangle;html=1;whiteSpace=wrap;connectable=0;strokeColor=inherit;overflow=hidden;fillColor=none;top=0;left=0;bottom=0;right=0;pointerEvents=1;" parent="KwdxTGRoU_PCcNSmUWH1-141" vertex="1">
          <mxGeometry x="50" width="230" height="30" as="geometry">
            <mxRectangle width="230" height="30" as="alternateBounds" />
          </mxGeometry>
        </mxCell>
        <mxCell id="KwdxTGRoU_PCcNSmUWH1-144" value="" style="shape=tableRow;horizontal=0;startSize=0;swimlaneHead=0;swimlaneBody=0;strokeColor=inherit;top=0;left=0;bottom=0;right=0;collapsible=0;dropTarget=0;fillColor=none;points=[[0,0.5],[1,0.5]];portConstraint=eastwest;" parent="KwdxTGRoU_PCcNSmUWH1-125" vertex="1">
          <mxGeometry y="210" width="280" height="30" as="geometry" />
        </mxCell>
        <mxCell id="KwdxTGRoU_PCcNSmUWH1-183" value="7" style="shape=partialRectangle;html=1;whiteSpace=wrap;connectable=0;strokeColor=inherit;overflow=hidden;fillColor=none;top=0;left=0;bottom=0;right=0;pointerEvents=1;" parent="KwdxTGRoU_PCcNSmUWH1-144" vertex="1">
          <mxGeometry width="20" height="30" as="geometry">
            <mxRectangle width="20" height="30" as="alternateBounds" />
          </mxGeometry>
        </mxCell>
        <mxCell id="KwdxTGRoU_PCcNSmUWH1-145" value="12" style="shape=partialRectangle;html=1;whiteSpace=wrap;connectable=0;strokeColor=inherit;overflow=hidden;fillColor=none;top=0;left=0;bottom=0;right=0;pointerEvents=1;" parent="KwdxTGRoU_PCcNSmUWH1-144" vertex="1">
          <mxGeometry x="20" width="30" height="30" as="geometry">
            <mxRectangle width="30" height="30" as="alternateBounds" />
          </mxGeometry>
        </mxCell>
        <mxCell id="KwdxTGRoU_PCcNSmUWH1-146" value="Perspective" style="shape=partialRectangle;html=1;whiteSpace=wrap;connectable=0;strokeColor=inherit;overflow=hidden;fillColor=none;top=0;left=0;bottom=0;right=0;pointerEvents=1;" parent="KwdxTGRoU_PCcNSmUWH1-144" vertex="1">
          <mxGeometry x="50" width="230" height="30" as="geometry">
            <mxRectangle width="230" height="30" as="alternateBounds" />
          </mxGeometry>
        </mxCell>
        <mxCell id="KwdxTGRoU_PCcNSmUWH1-147" value="" style="shape=tableRow;horizontal=0;startSize=0;swimlaneHead=0;swimlaneBody=0;strokeColor=inherit;top=0;left=0;bottom=0;right=0;collapsible=0;dropTarget=0;fillColor=none;points=[[0,0.5],[1,0.5]];portConstraint=eastwest;" parent="KwdxTGRoU_PCcNSmUWH1-125" vertex="1">
          <mxGeometry y="240" width="280" height="30" as="geometry" />
        </mxCell>
        <mxCell id="KwdxTGRoU_PCcNSmUWH1-184" value="8" style="shape=partialRectangle;html=1;whiteSpace=wrap;connectable=0;strokeColor=inherit;overflow=hidden;fillColor=none;top=0;left=0;bottom=0;right=0;pointerEvents=1;" parent="KwdxTGRoU_PCcNSmUWH1-147" vertex="1">
          <mxGeometry width="20" height="30" as="geometry">
            <mxRectangle width="20" height="30" as="alternateBounds" />
          </mxGeometry>
        </mxCell>
        <mxCell id="KwdxTGRoU_PCcNSmUWH1-148" value="13" style="shape=partialRectangle;html=1;whiteSpace=wrap;connectable=0;strokeColor=inherit;overflow=hidden;fillColor=none;top=0;left=0;bottom=0;right=0;pointerEvents=1;" parent="KwdxTGRoU_PCcNSmUWH1-147" vertex="1">
          <mxGeometry x="20" width="30" height="30" as="geometry">
            <mxRectangle width="30" height="30" as="alternateBounds" />
          </mxGeometry>
        </mxCell>
        <mxCell id="KwdxTGRoU_PCcNSmUWH1-149" value="Innovation" style="shape=partialRectangle;html=1;whiteSpace=wrap;connectable=0;strokeColor=inherit;overflow=hidden;fillColor=none;top=0;left=0;bottom=0;right=0;pointerEvents=1;" parent="KwdxTGRoU_PCcNSmUWH1-147" vertex="1">
          <mxGeometry x="50" width="230" height="30" as="geometry">
            <mxRectangle width="230" height="30" as="alternateBounds" />
          </mxGeometry>
        </mxCell>
        <mxCell id="KwdxTGRoU_PCcNSmUWH1-150" value="" style="shape=tableRow;horizontal=0;startSize=0;swimlaneHead=0;swimlaneBody=0;strokeColor=inherit;top=0;left=0;bottom=0;right=0;collapsible=0;dropTarget=0;fillColor=none;points=[[0,0.5],[1,0.5]];portConstraint=eastwest;" parent="KwdxTGRoU_PCcNSmUWH1-125" vertex="1">
          <mxGeometry y="270" width="280" height="30" as="geometry" />
        </mxCell>
        <mxCell id="KwdxTGRoU_PCcNSmUWH1-185" value="9" style="shape=partialRectangle;html=1;whiteSpace=wrap;connectable=0;strokeColor=inherit;overflow=hidden;fillColor=none;top=0;left=0;bottom=0;right=0;pointerEvents=1;" parent="KwdxTGRoU_PCcNSmUWH1-150" vertex="1">
          <mxGeometry width="20" height="30" as="geometry">
            <mxRectangle width="20" height="30" as="alternateBounds" />
          </mxGeometry>
        </mxCell>
        <mxCell id="KwdxTGRoU_PCcNSmUWH1-151" value="14" style="shape=partialRectangle;html=1;whiteSpace=wrap;connectable=0;strokeColor=inherit;overflow=hidden;fillColor=none;top=0;left=0;bottom=0;right=0;pointerEvents=1;" parent="KwdxTGRoU_PCcNSmUWH1-150" vertex="1">
          <mxGeometry x="20" width="30" height="30" as="geometry">
            <mxRectangle width="30" height="30" as="alternateBounds" />
          </mxGeometry>
        </mxCell>
        <mxCell id="KwdxTGRoU_PCcNSmUWH1-152" value="Strategy" style="shape=partialRectangle;html=1;whiteSpace=wrap;connectable=0;strokeColor=inherit;overflow=hidden;fillColor=none;top=0;left=0;bottom=0;right=0;pointerEvents=1;" parent="KwdxTGRoU_PCcNSmUWH1-150" vertex="1">
          <mxGeometry x="50" width="230" height="30" as="geometry">
            <mxRectangle width="230" height="30" as="alternateBounds" />
          </mxGeometry>
        </mxCell>
        <mxCell id="KwdxTGRoU_PCcNSmUWH1-153" value="" style="shape=tableRow;horizontal=0;startSize=0;swimlaneHead=0;swimlaneBody=0;strokeColor=inherit;top=0;left=0;bottom=0;right=0;collapsible=0;dropTarget=0;fillColor=none;points=[[0,0.5],[1,0.5]];portConstraint=eastwest;" parent="KwdxTGRoU_PCcNSmUWH1-125" vertex="1">
          <mxGeometry y="300" width="280" height="30" as="geometry" />
        </mxCell>
        <mxCell id="KwdxTGRoU_PCcNSmUWH1-186" value="10" style="shape=partialRectangle;html=1;whiteSpace=wrap;connectable=0;strokeColor=inherit;overflow=hidden;fillColor=none;top=0;left=0;bottom=0;right=0;pointerEvents=1;" parent="KwdxTGRoU_PCcNSmUWH1-153" vertex="1">
          <mxGeometry width="20" height="30" as="geometry">
            <mxRectangle width="20" height="30" as="alternateBounds" />
          </mxGeometry>
        </mxCell>
        <mxCell id="KwdxTGRoU_PCcNSmUWH1-154" value="15" style="shape=partialRectangle;html=1;whiteSpace=wrap;connectable=0;strokeColor=inherit;overflow=hidden;fillColor=none;top=0;left=0;bottom=0;right=0;pointerEvents=1;" parent="KwdxTGRoU_PCcNSmUWH1-153" vertex="1">
          <mxGeometry x="20" width="30" height="30" as="geometry">
            <mxRectangle width="30" height="30" as="alternateBounds" />
          </mxGeometry>
        </mxCell>
        <mxCell id="KwdxTGRoU_PCcNSmUWH1-155" value="Evaluation" style="shape=partialRectangle;html=1;whiteSpace=wrap;connectable=0;strokeColor=inherit;overflow=hidden;fillColor=none;top=0;left=0;bottom=0;right=0;pointerEvents=1;" parent="KwdxTGRoU_PCcNSmUWH1-153" vertex="1">
          <mxGeometry x="50" width="230" height="30" as="geometry">
            <mxRectangle width="230" height="30" as="alternateBounds" />
          </mxGeometry>
        </mxCell>
        <mxCell id="KwdxTGRoU_PCcNSmUWH1-156" value="" style="shape=tableRow;horizontal=0;startSize=0;swimlaneHead=0;swimlaneBody=0;strokeColor=inherit;top=0;left=0;bottom=0;right=0;collapsible=0;dropTarget=0;fillColor=none;points=[[0,0.5],[1,0.5]];portConstraint=eastwest;" parent="KwdxTGRoU_PCcNSmUWH1-125" vertex="1">
          <mxGeometry y="330" width="280" height="30" as="geometry" />
        </mxCell>
        <mxCell id="KwdxTGRoU_PCcNSmUWH1-187" value="11" style="shape=partialRectangle;html=1;whiteSpace=wrap;connectable=0;strokeColor=inherit;overflow=hidden;fillColor=none;top=0;left=0;bottom=0;right=0;pointerEvents=1;" parent="KwdxTGRoU_PCcNSmUWH1-156" vertex="1">
          <mxGeometry width="20" height="30" as="geometry">
            <mxRectangle width="20" height="30" as="alternateBounds" />
          </mxGeometry>
        </mxCell>
        <mxCell id="KwdxTGRoU_PCcNSmUWH1-157" value="17" style="shape=partialRectangle;html=1;whiteSpace=wrap;connectable=0;strokeColor=inherit;overflow=hidden;fillColor=none;top=0;left=0;bottom=0;right=0;pointerEvents=1;" parent="KwdxTGRoU_PCcNSmUWH1-156" vertex="1">
          <mxGeometry x="20" width="30" height="30" as="geometry">
            <mxRectangle width="30" height="30" as="alternateBounds" />
          </mxGeometry>
        </mxCell>
        <mxCell id="KwdxTGRoU_PCcNSmUWH1-158" value="Experiment" style="shape=partialRectangle;html=1;whiteSpace=wrap;connectable=0;strokeColor=inherit;overflow=hidden;fillColor=none;top=0;left=0;bottom=0;right=0;pointerEvents=1;" parent="KwdxTGRoU_PCcNSmUWH1-156" vertex="1">
          <mxGeometry x="50" width="230" height="30" as="geometry">
            <mxRectangle width="230" height="30" as="alternateBounds" />
          </mxGeometry>
        </mxCell>
        <mxCell id="KwdxTGRoU_PCcNSmUWH1-159" value="" style="shape=tableRow;horizontal=0;startSize=0;swimlaneHead=0;swimlaneBody=0;strokeColor=inherit;top=0;left=0;bottom=0;right=0;collapsible=0;dropTarget=0;fillColor=none;points=[[0,0.5],[1,0.5]];portConstraint=eastwest;" parent="KwdxTGRoU_PCcNSmUWH1-125" vertex="1">
          <mxGeometry y="360" width="280" height="30" as="geometry" />
        </mxCell>
        <mxCell id="KwdxTGRoU_PCcNSmUWH1-188" value="12" style="shape=partialRectangle;html=1;whiteSpace=wrap;connectable=0;strokeColor=inherit;overflow=hidden;fillColor=none;top=0;left=0;bottom=0;right=0;pointerEvents=1;" parent="KwdxTGRoU_PCcNSmUWH1-159" vertex="1">
          <mxGeometry width="20" height="30" as="geometry">
            <mxRectangle width="20" height="30" as="alternateBounds" />
          </mxGeometry>
        </mxCell>
        <mxCell id="KwdxTGRoU_PCcNSmUWH1-160" value="19" style="shape=partialRectangle;html=1;whiteSpace=wrap;connectable=0;strokeColor=inherit;overflow=hidden;fillColor=none;top=0;left=0;bottom=0;right=0;pointerEvents=1;" parent="KwdxTGRoU_PCcNSmUWH1-159" vertex="1">
          <mxGeometry x="20" width="30" height="30" as="geometry">
            <mxRectangle width="30" height="30" as="alternateBounds" />
          </mxGeometry>
        </mxCell>
        <mxCell id="KwdxTGRoU_PCcNSmUWH1-161" value="Outcome" style="shape=partialRectangle;html=1;whiteSpace=wrap;connectable=0;strokeColor=inherit;overflow=hidden;fillColor=none;top=0;left=0;bottom=0;right=0;pointerEvents=1;" parent="KwdxTGRoU_PCcNSmUWH1-159" vertex="1">
          <mxGeometry x="50" width="230" height="30" as="geometry">
            <mxRectangle width="230" height="30" as="alternateBounds" />
          </mxGeometry>
        </mxCell>
        <mxCell id="KwdxTGRoU_PCcNSmUWH1-162" value="" style="shape=tableRow;horizontal=0;startSize=0;swimlaneHead=0;swimlaneBody=0;strokeColor=inherit;top=0;left=0;bottom=0;right=0;collapsible=0;dropTarget=0;fillColor=none;points=[[0,0.5],[1,0.5]];portConstraint=eastwest;" parent="KwdxTGRoU_PCcNSmUWH1-125" vertex="1">
          <mxGeometry y="390" width="280" height="30" as="geometry" />
        </mxCell>
        <mxCell id="KwdxTGRoU_PCcNSmUWH1-189" value="13" style="shape=partialRectangle;html=1;whiteSpace=wrap;connectable=0;strokeColor=inherit;overflow=hidden;fillColor=none;top=0;left=0;bottom=0;right=0;pointerEvents=1;" parent="KwdxTGRoU_PCcNSmUWH1-162" vertex="1">
          <mxGeometry width="20" height="30" as="geometry">
            <mxRectangle width="20" height="30" as="alternateBounds" />
          </mxGeometry>
        </mxCell>
        <mxCell id="KwdxTGRoU_PCcNSmUWH1-163" value="20" style="shape=partialRectangle;html=1;whiteSpace=wrap;connectable=0;strokeColor=inherit;overflow=hidden;fillColor=none;top=0;left=0;bottom=0;right=0;pointerEvents=1;" parent="KwdxTGRoU_PCcNSmUWH1-162" vertex="1">
          <mxGeometry x="20" width="30" height="30" as="geometry">
            <mxRectangle width="30" height="30" as="alternateBounds" />
          </mxGeometry>
        </mxCell>
        <mxCell id="KwdxTGRoU_PCcNSmUWH1-164" value="Resource" style="shape=partialRectangle;html=1;whiteSpace=wrap;connectable=0;strokeColor=inherit;overflow=hidden;fillColor=none;top=0;left=0;bottom=0;right=0;pointerEvents=1;" parent="KwdxTGRoU_PCcNSmUWH1-162" vertex="1">
          <mxGeometry x="50" width="230" height="30" as="geometry">
            <mxRectangle width="230" height="30" as="alternateBounds" />
          </mxGeometry>
        </mxCell>
        <mxCell id="KwdxTGRoU_PCcNSmUWH1-197" value="&lt;h1&gt;Purpose&lt;/h1&gt;&lt;p&gt;The implementation of Design Language Types (DLTs) addresses the challenges presented by inflexible hierarchical data structures. DLTs facilitate powerful inquiries that interconnect pertinent data, guided by broad, multidisciplinary artistic movements that are firmly rooted in various media types, disciplines, and practices.&lt;br&gt;&lt;/p&gt;" style="text;html=1;strokeColor=none;fillColor=none;spacing=5;spacingTop=-20;whiteSpace=wrap;overflow=hidden;rounded=0;" parent="1" vertex="1">
          <mxGeometry x="830" y="60" width="250" height="190" as="geometry" />
        </mxCell>
        <mxCell id="KwdxTGRoU_PCcNSmUWH1-198" value="&lt;span style=&quot;font-size: 16px;&quot;&gt;07152023 v002 Grand Design Language Type Schema&lt;/span&gt;" style="text;html=1;strokeColor=none;fillColor=none;align=center;verticalAlign=middle;whiteSpace=wrap;rounded=0;fontStyle=1" parent="1" vertex="1">
          <mxGeometry x="20" y="10" width="450" height="30" as="geometry" />
        </mxCell>
        <mxCell id="zzADF-3Zt0PvS9EsOYR9-1" value="Pattern TItle" style="shape=table;startSize=30;container=1;collapsible=0;childLayout=tableLayout;" vertex="1" parent="1">
          <mxGeometry x="80" y="590" width="100" height="150" as="geometry" />
        </mxCell>
        <mxCell id="zzADF-3Zt0PvS9EsOYR9-2" value="" style="shape=tableRow;horizontal=0;startSize=0;swimlaneHead=0;swimlaneBody=0;strokeColor=inherit;top=0;left=0;bottom=0;right=0;collapsible=0;dropTarget=0;fillColor=none;points=[[0,0.5],[1,0.5]];portConstraint=eastwest;" vertex="1" parent="zzADF-3Zt0PvS9EsOYR9-1">
          <mxGeometry y="30" width="100" height="40" as="geometry" />
        </mxCell>
        <mxCell id="zzADF-3Zt0PvS9EsOYR9-3" value="PK" style="shape=partialRectangle;html=1;whiteSpace=wrap;connectable=0;strokeColor=inherit;overflow=hidden;fillColor=none;top=0;left=0;bottom=0;right=0;pointerEvents=1;" vertex="1" parent="zzADF-3Zt0PvS9EsOYR9-2">
          <mxGeometry width="20" height="40" as="geometry">
            <mxRectangle width="20" height="40" as="alternateBounds" />
          </mxGeometry>
        </mxCell>
        <mxCell id="zzADF-3Zt0PvS9EsOYR9-4" value="PT_ID" style="shape=partialRectangle;html=1;whiteSpace=wrap;connectable=0;strokeColor=inherit;overflow=hidden;fillColor=none;top=0;left=0;bottom=0;right=0;pointerEvents=1;" vertex="1" parent="zzADF-3Zt0PvS9EsOYR9-2">
          <mxGeometry x="20" width="80" height="40" as="geometry">
            <mxRectangle width="80" height="40" as="alternateBounds" />
          </mxGeometry>
        </mxCell>
        <mxCell id="zzADF-3Zt0PvS9EsOYR9-5" value="" style="shape=tableRow;horizontal=0;startSize=0;swimlaneHead=0;swimlaneBody=0;strokeColor=inherit;top=0;left=0;bottom=0;right=0;collapsible=0;dropTarget=0;fillColor=none;points=[[0,0.5],[1,0.5]];portConstraint=eastwest;" vertex="1" parent="zzADF-3Zt0PvS9EsOYR9-1">
          <mxGeometry y="70" width="100" height="40" as="geometry" />
        </mxCell>
        <mxCell id="zzADF-3Zt0PvS9EsOYR9-6" value="..." style="shape=partialRectangle;html=1;whiteSpace=wrap;connectable=0;strokeColor=inherit;overflow=hidden;fillColor=none;top=0;left=0;bottom=0;right=0;pointerEvents=1;" vertex="1" parent="zzADF-3Zt0PvS9EsOYR9-5">
          <mxGeometry width="20" height="40" as="geometry">
            <mxRectangle width="20" height="40" as="alternateBounds" />
          </mxGeometry>
        </mxCell>
        <mxCell id="zzADF-3Zt0PvS9EsOYR9-7" value="..." style="shape=partialRectangle;html=1;whiteSpace=wrap;connectable=0;strokeColor=inherit;overflow=hidden;fillColor=none;top=0;left=0;bottom=0;right=0;pointerEvents=1;" vertex="1" parent="zzADF-3Zt0PvS9EsOYR9-5">
          <mxGeometry x="20" width="80" height="40" as="geometry">
            <mxRectangle width="80" height="40" as="alternateBounds" />
          </mxGeometry>
        </mxCell>
        <mxCell id="zzADF-3Zt0PvS9EsOYR9-8" value="" style="shape=tableRow;horizontal=0;startSize=0;swimlaneHead=0;swimlaneBody=0;strokeColor=inherit;top=0;left=0;bottom=0;right=0;collapsible=0;dropTarget=0;fillColor=none;points=[[0,0.5],[1,0.5]];portConstraint=eastwest;" vertex="1" parent="zzADF-3Zt0PvS9EsOYR9-1">
          <mxGeometry y="110" width="100" height="40" as="geometry" />
        </mxCell>
        <mxCell id="zzADF-3Zt0PvS9EsOYR9-9" value="FK" style="shape=partialRectangle;html=1;whiteSpace=wrap;connectable=0;strokeColor=inherit;overflow=hidden;fillColor=none;top=0;left=0;bottom=0;right=0;pointerEvents=1;" vertex="1" parent="zzADF-3Zt0PvS9EsOYR9-8">
          <mxGeometry width="20" height="40" as="geometry">
            <mxRectangle width="20" height="40" as="alternateBounds" />
          </mxGeometry>
        </mxCell>
        <mxCell id="zzADF-3Zt0PvS9EsOYR9-10" value="GRANDDDLT_ID" style="shape=partialRectangle;html=1;whiteSpace=wrap;connectable=0;strokeColor=inherit;overflow=hidden;fillColor=none;top=0;left=0;bottom=0;right=0;pointerEvents=1;" vertex="1" parent="zzADF-3Zt0PvS9EsOYR9-8">
          <mxGeometry x="20" width="80" height="40" as="geometry">
            <mxRectangle width="80" height="40" as="alternateBounds" />
          </mxGeometry>
        </mxCell>
        <mxCell id="zzADF-3Zt0PvS9EsOYR9-11" value="Grand Design Language Type" style="shape=table;startSize=30;container=1;collapsible=0;childLayout=tableLayout;" vertex="1" parent="1">
          <mxGeometry x="240" y="590" width="380" height="150" as="geometry" />
        </mxCell>
        <mxCell id="zzADF-3Zt0PvS9EsOYR9-12" value="" style="shape=tableRow;horizontal=0;startSize=0;swimlaneHead=0;swimlaneBody=0;strokeColor=inherit;top=0;left=0;bottom=0;right=0;collapsible=0;dropTarget=0;fillColor=none;points=[[0,0.5],[1,0.5]];portConstraint=eastwest;" vertex="1" parent="zzADF-3Zt0PvS9EsOYR9-11">
          <mxGeometry y="30" width="380" height="40" as="geometry" />
        </mxCell>
        <mxCell id="zzADF-3Zt0PvS9EsOYR9-13" value="PK" style="shape=partialRectangle;html=1;whiteSpace=wrap;connectable=0;strokeColor=inherit;overflow=hidden;fillColor=none;top=0;left=0;bottom=0;right=0;pointerEvents=1;" vertex="1" parent="zzADF-3Zt0PvS9EsOYR9-12">
          <mxGeometry width="20" height="40" as="geometry">
            <mxRectangle width="20" height="40" as="alternateBounds" />
          </mxGeometry>
        </mxCell>
        <mxCell id="zzADF-3Zt0PvS9EsOYR9-14" value="GRANDDLT_ID" style="shape=partialRectangle;html=1;whiteSpace=wrap;connectable=0;strokeColor=inherit;overflow=hidden;fillColor=none;top=0;left=0;bottom=0;right=0;pointerEvents=1;" vertex="1" parent="zzADF-3Zt0PvS9EsOYR9-12">
          <mxGeometry x="20" width="120" height="40" as="geometry">
            <mxRectangle width="120" height="40" as="alternateBounds" />
          </mxGeometry>
        </mxCell>
        <mxCell id="zzADF-3Zt0PvS9EsOYR9-15" value="Unique Grand Design Language Type ID" style="shape=partialRectangle;html=1;whiteSpace=wrap;connectable=0;strokeColor=inherit;overflow=hidden;fillColor=none;top=0;left=0;bottom=0;right=0;pointerEvents=1;" vertex="1" parent="zzADF-3Zt0PvS9EsOYR9-12">
          <mxGeometry x="140" width="240" height="40" as="geometry">
            <mxRectangle width="240" height="40" as="alternateBounds" />
          </mxGeometry>
        </mxCell>
        <mxCell id="zzADF-3Zt0PvS9EsOYR9-16" value="" style="shape=tableRow;horizontal=0;startSize=0;swimlaneHead=0;swimlaneBody=0;strokeColor=inherit;top=0;left=0;bottom=0;right=0;collapsible=0;dropTarget=0;fillColor=none;points=[[0,0.5],[1,0.5]];portConstraint=eastwest;" vertex="1" parent="zzADF-3Zt0PvS9EsOYR9-11">
          <mxGeometry y="70" width="380" height="40" as="geometry" />
        </mxCell>
        <mxCell id="zzADF-3Zt0PvS9EsOYR9-17" value="" style="shape=partialRectangle;html=1;whiteSpace=wrap;connectable=0;strokeColor=inherit;overflow=hidden;fillColor=none;top=0;left=0;bottom=0;right=0;pointerEvents=1;" vertex="1" parent="zzADF-3Zt0PvS9EsOYR9-16">
          <mxGeometry width="20" height="40" as="geometry">
            <mxRectangle width="20" height="40" as="alternateBounds" />
          </mxGeometry>
        </mxCell>
        <mxCell id="zzADF-3Zt0PvS9EsOYR9-18" value="GRANDDLT_NAME" style="shape=partialRectangle;html=1;whiteSpace=wrap;connectable=0;strokeColor=inherit;overflow=hidden;fillColor=none;top=0;left=0;bottom=0;right=0;pointerEvents=1;" vertex="1" parent="zzADF-3Zt0PvS9EsOYR9-16">
          <mxGeometry x="20" width="120" height="40" as="geometry">
            <mxRectangle width="120" height="40" as="alternateBounds" />
          </mxGeometry>
        </mxCell>
        <mxCell id="zzADF-3Zt0PvS9EsOYR9-19" value="Grand Design Language Type Name" style="shape=partialRectangle;html=1;whiteSpace=wrap;connectable=0;strokeColor=inherit;overflow=hidden;fillColor=none;top=0;left=0;bottom=0;right=0;pointerEvents=1;" vertex="1" parent="zzADF-3Zt0PvS9EsOYR9-16">
          <mxGeometry x="140" width="240" height="40" as="geometry">
            <mxRectangle width="240" height="40" as="alternateBounds" />
          </mxGeometry>
        </mxCell>
        <mxCell id="zzADF-3Zt0PvS9EsOYR9-20" value="" style="shape=tableRow;horizontal=0;startSize=0;swimlaneHead=0;swimlaneBody=0;strokeColor=inherit;top=0;left=0;bottom=0;right=0;collapsible=0;dropTarget=0;fillColor=none;points=[[0,0.5],[1,0.5]];portConstraint=eastwest;" vertex="1" parent="zzADF-3Zt0PvS9EsOYR9-11">
          <mxGeometry y="110" width="380" height="40" as="geometry" />
        </mxCell>
        <mxCell id="zzADF-3Zt0PvS9EsOYR9-21" value="FK" style="shape=partialRectangle;html=1;whiteSpace=wrap;connectable=0;strokeColor=inherit;overflow=hidden;fillColor=none;top=0;left=0;bottom=0;right=0;pointerEvents=1;" vertex="1" parent="zzADF-3Zt0PvS9EsOYR9-20">
          <mxGeometry width="20" height="40" as="geometry">
            <mxRectangle width="20" height="40" as="alternateBounds" />
          </mxGeometry>
        </mxCell>
        <mxCell id="zzADF-3Zt0PvS9EsOYR9-22" value="MAJORDLT_ID" style="shape=partialRectangle;html=1;whiteSpace=wrap;connectable=0;strokeColor=inherit;overflow=hidden;fillColor=none;top=0;left=0;bottom=0;right=0;pointerEvents=1;" vertex="1" parent="zzADF-3Zt0PvS9EsOYR9-20">
          <mxGeometry x="20" width="120" height="40" as="geometry">
            <mxRectangle width="120" height="40" as="alternateBounds" />
          </mxGeometry>
        </mxCell>
        <mxCell id="zzADF-3Zt0PvS9EsOYR9-23" value="Major Design Language Type ID" style="shape=partialRectangle;html=1;whiteSpace=wrap;connectable=0;strokeColor=inherit;overflow=hidden;fillColor=none;top=0;left=0;bottom=0;right=0;pointerEvents=1;" vertex="1" parent="zzADF-3Zt0PvS9EsOYR9-20">
          <mxGeometry x="140" width="240" height="40" as="geometry">
            <mxRectangle width="240" height="40" as="alternateBounds" />
          </mxGeometry>
        </mxCell>
        <mxCell id="zzADF-3Zt0PvS9EsOYR9-24" style="edgeStyle=orthogonalEdgeStyle;rounded=0;orthogonalLoop=1;jettySize=auto;html=1;exitX=1;exitY=0.5;exitDx=0;exitDy=0;entryX=0;entryY=0.5;entryDx=0;entryDy=0;" edge="1" parent="1" source="zzADF-3Zt0PvS9EsOYR9-8" target="zzADF-3Zt0PvS9EsOYR9-12">
          <mxGeometry relative="1" as="geometry" />
        </mxCell>
        <mxCell id="zzADF-3Zt0PvS9EsOYR9-25" value="Major Design Langauge Type" style="shape=table;startSize=30;container=1;collapsible=0;childLayout=tableLayout;" vertex="1" parent="1">
          <mxGeometry x="680" y="590" width="400" height="150" as="geometry" />
        </mxCell>
        <mxCell id="zzADF-3Zt0PvS9EsOYR9-26" value="" style="shape=tableRow;horizontal=0;startSize=0;swimlaneHead=0;swimlaneBody=0;strokeColor=inherit;top=0;left=0;bottom=0;right=0;collapsible=0;dropTarget=0;fillColor=none;points=[[0,0.5],[1,0.5]];portConstraint=eastwest;" vertex="1" parent="zzADF-3Zt0PvS9EsOYR9-25">
          <mxGeometry y="30" width="400" height="40" as="geometry" />
        </mxCell>
        <mxCell id="zzADF-3Zt0PvS9EsOYR9-27" value="PK" style="shape=partialRectangle;html=1;whiteSpace=wrap;connectable=0;strokeColor=inherit;overflow=hidden;fillColor=none;top=0;left=0;bottom=0;right=0;pointerEvents=1;" vertex="1" parent="zzADF-3Zt0PvS9EsOYR9-26">
          <mxGeometry width="21" height="40" as="geometry">
            <mxRectangle width="21" height="40" as="alternateBounds" />
          </mxGeometry>
        </mxCell>
        <mxCell id="zzADF-3Zt0PvS9EsOYR9-28" value="MAJORDLT_ID" style="shape=partialRectangle;html=1;whiteSpace=wrap;connectable=0;strokeColor=inherit;overflow=hidden;fillColor=none;top=0;left=0;bottom=0;right=0;pointerEvents=1;" vertex="1" parent="zzADF-3Zt0PvS9EsOYR9-26">
          <mxGeometry x="21" width="124" height="40" as="geometry">
            <mxRectangle width="124" height="40" as="alternateBounds" />
          </mxGeometry>
        </mxCell>
        <mxCell id="zzADF-3Zt0PvS9EsOYR9-29" value="Unique Major Design Language Type ID" style="shape=partialRectangle;html=1;whiteSpace=wrap;connectable=0;strokeColor=inherit;overflow=hidden;fillColor=none;top=0;left=0;bottom=0;right=0;pointerEvents=1;" vertex="1" parent="zzADF-3Zt0PvS9EsOYR9-26">
          <mxGeometry x="145" width="255" height="40" as="geometry">
            <mxRectangle width="255" height="40" as="alternateBounds" />
          </mxGeometry>
        </mxCell>
        <mxCell id="zzADF-3Zt0PvS9EsOYR9-30" value="" style="shape=tableRow;horizontal=0;startSize=0;swimlaneHead=0;swimlaneBody=0;strokeColor=inherit;top=0;left=0;bottom=0;right=0;collapsible=0;dropTarget=0;fillColor=none;points=[[0,0.5],[1,0.5]];portConstraint=eastwest;" vertex="1" parent="zzADF-3Zt0PvS9EsOYR9-25">
          <mxGeometry y="70" width="400" height="40" as="geometry" />
        </mxCell>
        <mxCell id="zzADF-3Zt0PvS9EsOYR9-31" value="" style="shape=partialRectangle;html=1;whiteSpace=wrap;connectable=0;strokeColor=inherit;overflow=hidden;fillColor=none;top=0;left=0;bottom=0;right=0;pointerEvents=1;" vertex="1" parent="zzADF-3Zt0PvS9EsOYR9-30">
          <mxGeometry width="21" height="40" as="geometry">
            <mxRectangle width="21" height="40" as="alternateBounds" />
          </mxGeometry>
        </mxCell>
        <mxCell id="zzADF-3Zt0PvS9EsOYR9-32" value="MAJORDLT_NAME" style="shape=partialRectangle;html=1;whiteSpace=wrap;connectable=0;strokeColor=inherit;overflow=hidden;fillColor=none;top=0;left=0;bottom=0;right=0;pointerEvents=1;" vertex="1" parent="zzADF-3Zt0PvS9EsOYR9-30">
          <mxGeometry x="21" width="124" height="40" as="geometry">
            <mxRectangle width="124" height="40" as="alternateBounds" />
          </mxGeometry>
        </mxCell>
        <mxCell id="zzADF-3Zt0PvS9EsOYR9-33" value="Major Design Language Type Name" style="shape=partialRectangle;html=1;whiteSpace=wrap;connectable=0;strokeColor=inherit;overflow=hidden;fillColor=none;top=0;left=0;bottom=0;right=0;pointerEvents=1;" vertex="1" parent="zzADF-3Zt0PvS9EsOYR9-30">
          <mxGeometry x="145" width="255" height="40" as="geometry">
            <mxRectangle width="255" height="40" as="alternateBounds" />
          </mxGeometry>
        </mxCell>
        <mxCell id="zzADF-3Zt0PvS9EsOYR9-34" value="" style="shape=tableRow;horizontal=0;startSize=0;swimlaneHead=0;swimlaneBody=0;strokeColor=inherit;top=0;left=0;bottom=0;right=0;collapsible=0;dropTarget=0;fillColor=none;points=[[0,0.5],[1,0.5]];portConstraint=eastwest;" vertex="1" parent="zzADF-3Zt0PvS9EsOYR9-25">
          <mxGeometry y="110" width="400" height="40" as="geometry" />
        </mxCell>
        <mxCell id="zzADF-3Zt0PvS9EsOYR9-35" value="FK" style="shape=partialRectangle;html=1;whiteSpace=wrap;connectable=0;strokeColor=inherit;overflow=hidden;fillColor=none;top=0;left=0;bottom=0;right=0;pointerEvents=1;" vertex="1" parent="zzADF-3Zt0PvS9EsOYR9-34">
          <mxGeometry width="21" height="40" as="geometry">
            <mxRectangle width="21" height="40" as="alternateBounds" />
          </mxGeometry>
        </mxCell>
        <mxCell id="zzADF-3Zt0PvS9EsOYR9-36" value="MINORMF_ID" style="shape=partialRectangle;html=1;whiteSpace=wrap;connectable=0;strokeColor=inherit;overflow=hidden;fillColor=none;top=0;left=0;bottom=0;right=0;pointerEvents=1;" vertex="1" parent="zzADF-3Zt0PvS9EsOYR9-34">
          <mxGeometry x="21" width="124" height="40" as="geometry">
            <mxRectangle width="124" height="40" as="alternateBounds" />
          </mxGeometry>
        </mxCell>
        <mxCell id="zzADF-3Zt0PvS9EsOYR9-37" value="Minor Media Form" style="shape=partialRectangle;html=1;whiteSpace=wrap;connectable=0;strokeColor=inherit;overflow=hidden;fillColor=none;top=0;left=0;bottom=0;right=0;pointerEvents=1;" vertex="1" parent="zzADF-3Zt0PvS9EsOYR9-34">
          <mxGeometry x="145" width="255" height="40" as="geometry">
            <mxRectangle width="255" height="40" as="alternateBounds" />
          </mxGeometry>
        </mxCell>
        <mxCell id="zzADF-3Zt0PvS9EsOYR9-38" style="edgeStyle=orthogonalEdgeStyle;rounded=0;orthogonalLoop=1;jettySize=auto;html=1;exitX=1;exitY=0.5;exitDx=0;exitDy=0;entryX=0;entryY=0.5;entryDx=0;entryDy=0;" edge="1" parent="1" source="zzADF-3Zt0PvS9EsOYR9-20" target="zzADF-3Zt0PvS9EsOYR9-26">
          <mxGeometry relative="1" as="geometry" />
        </mxCell>
        <mxCell id="zzADF-3Zt0PvS9EsOYR9-39" value="schema pattern" style="text;html=1;strokeColor=none;fillColor=none;align=center;verticalAlign=middle;whiteSpace=wrap;rounded=0;" vertex="1" parent="1">
          <mxGeometry x="20" y="630" width="60" height="30" as="geometry" />
        </mxCell>
      </root>
    </mxGraphModel>
  </diagram>
</mxfile>
